<?xml version="1.0" standalone="no"?><!DOCTYPE svg PUBLIC "-//W3C//DTD SVG 1.1//EN" "http://www.w3.org/Graphics/SVG/1.1/DTD/svg11.dtd"><svg t="1739129318167" class="icon" viewBox="0 0 1024 1024" version="1.1" xmlns="http://www.w3.org/2000/svg" p-id="3169" xmlns:xlink="http://www.w3.org/1999/xlink" width="200" height="200"><path d="M512 380.128a162.56 162.56 0 0 0-98.816 33.408l46.752 46.4a97.696 97.696 0 0 1 149.632 78.08h-67.008l97.76 97.184 97.76-97.184h-63.328c-2.176-87.552-74.112-157.888-162.752-157.888zM382.336 448.928l-97.824 97.216h63.36c2.176 87.552 74.112 157.984 162.752 157.984 37.184 0 71.36-12.608 98.784-33.44l-46.752-46.432a97.536 97.536 0 0 1-149.6-78.08h67.008l-97.728-97.248z" p-id="3170"></path><path d="M123.232 382.4H279.68l18.944-18.976 110.624-110.592h205.44l110.624 110.592 19.008 18.976h156.448V771.2H123.232V382.4z m259.168-194.336L252.832 317.632H58.464v518.304h907.104V317.632H771.2l-129.632-129.568H382.4z" p-id="3171"></path></svg>