<?xml version="1.0" standalone="no"?><!DOCTYPE svg PUBLIC "-//W3C//DTD SVG 1.1//EN" "http://www.w3.org/Graphics/SVG/1.1/DTD/svg11.dtd"><svg t="1740595932624" class="icon" viewBox="0 0 1032 1024" version="1.1" xmlns="http://www.w3.org/2000/svg" p-id="9590" xmlns:xlink="http://www.w3.org/1999/xlink" width="201.5625" height="200"><path d="M512 1024C229.237 1024 0 794.785 0 512 0 229.237 229.237 0 512 0c282.763 0 512 229.237 512 512 0 282.763-229.215 512-512 512z m0-68.248c245.083 0 443.752-198.67 443.752-443.752 0-245.061-198.67-443.73-443.752-443.73C266.939 68.27 68.27 266.939 68.27 512c0 245.083 198.669 443.752 443.73 443.752z m0-47.797c-218.644 0-395.955-177.268-395.955-395.955 0-218.666 177.268-395.955 395.955-395.955S907.955 293.313 907.955 512 730.687 907.955 512 907.955z" fill="#333333" p-id="9591"></path></svg>